<svg width="122" height="53" viewBox="0 0 122 53" fill="none" xmlns="http://www.w3.org/2000/svg">
<g clip-path="url(#clip0_0_1274)">
<path d="M106.683 1.95703C110.791 1.95703 114.312 3.42471 117.252 6.34843C120.193 9.27842 121.659 12.7924 121.659 16.9039C121.659 21.0216 120.193 24.5303 117.252 27.4343C116.853 27.8278 116.444 28.1945 116.024 28.5344C109.105 24.9596 101.796 23.2504 101.645 16.9093C102.918 19.4547 103.652 20.857 106.392 22.2272C106.61 21.8999 106.843 21.5064 107.076 21.1978C108.252 19.6362 108.499 20.2381 111.137 19.6595C113.354 19.1738 113.858 18.1909 114.016 15.7171C112.001 13.9954 112.581 15.184 111.339 12.3801C110.576 10.6584 109.933 10.5171 107.908 10.0851L108.115 6.68114C103.567 7.7544 100.394 11.577 98.7997 15.8092C96.8104 21.0932 97.4191 24.6599 98.4164 29.3313C97.6085 28.7893 96.8383 28.1579 96.1067 27.4352C93.1848 24.5177 91.718 21.01 91.718 16.9048C91.718 12.8058 93.1848 9.29094 96.1067 6.34933C99.0474 3.4256 102.568 1.95793 106.682 1.95793L106.683 1.95703Z" fill="#3D4A39"/>
<path d="M109.978 9.22297L110.239 8.59869C111.336 9.05393 112.339 9.73455 113.248 10.6397L113.247 10.6406C114.165 11.5528 114.853 12.5563 115.312 13.651C115.772 14.7475 116.001 15.9326 116.001 17.2044C116.001 18.4878 115.771 19.6783 115.31 20.7748C114.851 21.8686 114.163 22.8658 113.245 23.7647C112.331 24.6653 111.327 25.3397 110.233 25.7904C109.135 26.243 107.951 26.4684 106.683 26.4684C105.395 26.4684 104.2 26.2439 103.099 25.7922C101.998 25.3415 100.997 24.6653 100.094 23.7629L100.093 23.7638C99.1848 22.8587 98.5017 21.8579 98.0448 20.7614C97.5879 19.6657 97.3589 18.4798 97.3589 17.2044C97.3589 15.9389 97.5879 14.7583 98.0439 13.6618C98.4999 12.567 99.183 11.56 100.091 10.6423C100.989 9.73545 101.987 9.05393 103.087 8.59869L103.347 9.22297C102.331 9.64332 101.407 10.2748 100.574 11.1155C99.7279 11.9705 99.0932 12.906 98.6704 13.9211C98.2494 14.9327 98.0385 16.0274 98.0385 17.2044C98.0385 18.3921 98.2494 19.4913 98.6713 20.502C99.0932 21.5135 99.7279 22.4419 100.573 23.2853V23.2862C101.412 24.1251 102.34 24.7521 103.355 25.1688C104.371 25.5847 105.479 25.7922 106.682 25.7922C107.864 25.7922 108.962 25.5847 109.975 25.1671C110.985 24.7503 111.917 24.1233 112.767 23.2853L112.768 23.2844C113.621 22.4499 114.258 21.5269 114.683 20.5172C115.107 19.5047 115.319 18.4011 115.319 17.2053C115.319 16.0211 115.108 14.9228 114.684 13.9104C114.259 12.8971 113.621 11.966 112.766 11.1182H112.765C111.919 10.2748 110.989 9.64243 109.977 9.22297H109.978ZM106.683 1.95703C108.781 1.95703 110.731 2.33267 112.536 3.08305C114.338 3.83254 115.99 4.95499 117.492 6.44771H117.493C118.993 7.94311 120.12 9.59145 120.872 11.3918C121.624 13.1931 122 15.1429 122 17.242C122 19.3447 121.624 21.2944 120.872 23.0921C120.121 24.888 118.994 26.5283 117.492 28.0121C115.996 29.4896 114.347 30.5977 112.544 31.3374C110.739 32.077 108.786 32.4473 106.683 32.4473V32.4464C104.571 32.4402 102.612 32.0672 100.808 31.3275C99.0044 30.5879 97.3572 29.4833 95.8688 28.013L95.8679 28.0121C94.3751 26.522 93.254 24.8791 92.5053 23.0841C91.7558 21.2872 91.3796 19.3402 91.3796 17.2438C91.3796 15.15 91.7558 13.2038 92.5053 11.4026C93.254 9.60397 94.3751 7.95384 95.8679 6.45039L95.8688 6.4495C97.3706 4.95678 99.0223 3.83433 100.826 3.08484C102.63 2.33446 104.582 1.95882 106.684 1.95882L106.683 1.95703ZM112.275 3.70644C110.556 2.99183 108.693 2.63318 106.683 2.63318C104.67 2.63318 102.805 2.99093 101.085 3.70644C99.3643 4.42194 97.7853 5.49519 96.3473 6.92531C94.9191 8.36436 93.8455 9.94205 93.131 11.6601C92.4164 13.3765 92.0592 15.2368 92.0592 17.242C92.0592 19.2507 92.4173 21.1111 93.131 22.8229C93.8455 24.5365 94.9182 26.1071 96.3473 27.5336C97.7728 28.9413 99.3455 29.9976 101.065 30.7024C102.788 31.4089 104.661 31.7649 106.683 31.7703V31.7685C108.7 31.7685 110.568 31.4161 112.286 30.7122C114.006 30.0074 115.581 28.9476 117.013 27.5327C118.451 26.1124 119.528 24.5455 120.246 22.8318C120.962 21.1191 121.32 19.2561 121.32 17.2411C121.32 15.2296 120.962 13.3657 120.246 11.6494C119.529 9.9331 118.451 8.3581 117.012 6.92441L117.013 6.92352C115.575 5.49341 113.996 4.42015 112.275 3.70465V3.70644Z" fill="#3D4A39"/>
<path d="M103.317 9.14964L103.348 9.22298C103.271 9.25518 103.194 9.28827 103.118 9.32225C101.176 11.0439 99.7223 13.3577 98.7995 15.8083C98.5033 16.5953 98.2645 17.3439 98.0769 18.0639C98.155 18.927 98.3534 19.74 98.6712 20.502C99.0931 21.5135 99.7277 22.4419 100.573 23.2853V23.2862C101.412 24.1251 102.34 24.7521 103.355 25.1689C104.37 25.5847 105.479 25.7922 106.682 25.7922C107.629 25.7922 108.521 25.659 109.36 25.3916C105.081 23.3416 101.746 21.1719 101.644 16.9084C102.917 19.4538 103.651 20.8562 106.391 22.2264C106.609 21.899 106.842 21.5055 107.075 21.1978C108.251 19.6362 108.498 20.2373 111.136 19.6595C113.353 19.1738 113.857 18.1909 114.015 15.7171C112 13.9954 112.58 15.184 111.338 12.3801C110.575 10.6585 109.933 10.5171 107.907 10.0852L108.114 6.68115C106.289 7.11224 104.685 7.98605 103.317 9.15053L103.317 9.14964Z" fill="#DDD5C1"/>
<path d="M110.22 25.7965C109.125 26.2455 107.946 26.4691 106.683 26.4691C105.395 26.4691 104.2 26.2437 103.098 25.793C101.998 25.3422 100.997 24.666 100.094 23.7636L100.093 23.7645C99.1847 22.8594 98.5015 21.8586 98.0446 20.7621C97.9136 20.4481 97.8014 20.1271 97.708 19.7988C97.1748 23.0892 97.682 25.886 98.3983 29.2488C99.2439 29.8364 100.133 30.3221 101.064 30.704C102.787 31.4105 104.66 31.7665 106.682 31.7719V31.771C108.699 31.771 110.567 31.4186 112.285 30.7147C113.589 30.1799 114.811 29.4411 115.95 28.4976C114.013 27.5012 112.047 26.648 110.219 25.7974L110.22 25.7965Z" fill="#AE7B3C"/>
<path d="M75.3491 2.0124C79.4442 2.0124 82.972 3.46129 85.937 6.36624L81.7108 10.577C79.9191 8.81684 77.8087 7.93319 75.3868 7.93319C72.9083 7.93319 70.7979 8.81684 69.0565 10.577C67.3025 12.3246 66.4219 14.4335 66.4219 16.9029C66.4219 19.366 67.3025 21.475 69.0565 23.2226C70.7854 24.9702 72.8958 25.8476 75.3868 25.8476C77.2162 25.8476 78.8769 25.3378 80.3751 24.3173C81.7548 23.3845 82.7853 22.178 83.472 20.7094H75.0564V15.0802H90.2018C90.5887 20.0932 89.1596 24.2118 85.9002 27.4333C82.9594 30.3383 79.4388 31.7872 75.3311 31.7872C71.1857 31.7872 67.6651 30.3383 64.7746 27.4333C61.8528 24.5409 60.386 21.0332 60.386 16.9029C60.386 12.804 61.8528 9.28907 64.7746 6.34746C67.6777 3.42373 71.1983 1.95605 75.3311 1.95605L75.35 2.0124H75.3491Z" fill="#3D4A39"/>
<path d="M75.5934 1.67622C77.5916 1.70394 79.4596 2.07422 81.1957 2.78882C83.0018 3.53116 84.6606 4.64377 86.175 6.12665L86.4192 6.36545L81.7136 11.0538L81.4739 10.8186C80.6095 9.96979 79.6688 9.3321 78.6535 8.90727C77.6418 8.48423 76.553 8.27226 75.3869 8.27226C74.193 8.27226 73.0898 8.48423 72.0772 8.90727C71.0629 9.33121 70.1365 9.96711 69.2981 10.8141L69.2972 10.8168C68.4507 11.6602 67.816 12.5885 67.3941 13.601C66.9731 14.6125 66.7622 15.7135 66.7622 16.903C66.7622 18.0908 66.9731 19.1899 67.395 20.2006C67.8169 21.2121 68.4516 22.1405 69.2972 22.983L69.2981 22.9857C70.1302 23.8273 71.0539 24.4587 72.0674 24.8791C73.079 25.2986 74.1858 25.5087 75.3869 25.5087C76.2693 25.5087 77.1086 25.3862 77.9057 25.142C78.7038 24.897 79.4632 24.5294 80.184 24.0384H80.1849C80.8465 23.5912 81.4255 23.0769 81.9219 22.4991C82.3034 22.0546 82.6364 21.5708 82.921 21.0485H74.7164V14.7422H90.5161L90.5403 15.0552C90.7369 17.606 90.4703 19.9341 89.7378 22.0385C89.0035 24.1475 87.8051 26.0257 86.1391 27.6731C84.6373 29.1569 82.9847 30.2695 81.1822 31.0118C79.3779 31.7551 77.4282 32.1262 75.3313 32.1262C73.2146 32.1262 71.2541 31.7551 69.4516 31.011C67.65 30.2677 66.0109 29.1551 64.5351 27.6722C63.0423 26.1938 61.9211 24.558 61.1716 22.7621C60.422 20.9653 60.0459 19.012 60.0459 16.903C60.0459 14.8093 60.422 12.8631 61.1716 11.0618C61.9202 9.26323 63.0414 7.6131 64.5342 6.10965C66.018 4.61515 67.6617 3.49181 69.4642 2.74232C71.2658 1.99283 73.2218 1.61719 75.3313 1.61719H75.5745L75.5934 1.67532V1.67622ZM80.9389 3.41221C79.2172 2.70475 77.3546 2.35058 75.3501 2.35058H75.1068L75.0889 2.29602C73.1607 2.32375 71.3726 2.6806 69.7245 3.36659C68.0055 4.0821 66.4354 5.15535 65.0145 6.58546C63.5854 8.02452 62.5127 9.6022 61.7972 11.3212C61.0827 13.0375 60.7254 14.8978 60.7254 16.903C60.7254 18.9243 61.0836 20.7909 61.7972 22.5027C62.5118 24.2164 63.5845 25.7797 65.0127 27.1946L65.0136 27.1955C66.4265 28.6158 67.992 29.6792 69.7074 30.3867C71.4246 31.095 73.2999 31.4492 75.3304 31.4492C77.3411 31.4492 79.2056 31.0959 80.9246 30.3876C82.6436 29.6792 84.2226 28.6149 85.6615 27.1937C87.254 25.6187 88.3994 23.8273 89.0987 21.8185C89.7692 19.8911 90.0313 17.7571 89.885 15.4183H75.3959V20.3705H84.0045L83.7791 20.8517C83.4228 21.6137 82.9757 22.3095 82.4362 22.9374C81.903 23.559 81.2792 24.1117 80.5655 24.5956V24.5965C79.789 25.125 78.9686 25.5221 78.1041 25.7878C77.2388 26.0534 76.333 26.1858 75.3869 26.1858C74.0979 26.1858 72.9049 25.9577 71.8079 25.5034C70.711 25.049 69.7146 24.3675 68.8169 23.4615L68.816 23.4624C67.9076 22.5573 67.2245 21.5565 66.7676 20.46C66.3107 19.3643 66.0818 18.1784 66.0818 16.903C66.0818 15.625 66.3107 14.4381 66.7676 13.3416C67.2245 12.2442 67.9076 11.2434 68.816 10.3383L68.8169 10.3392C69.72 9.4269 70.7191 8.74092 71.8142 8.28389C72.9112 7.82507 74.1024 7.59611 75.3869 7.59611C76.6427 7.59611 77.8196 7.82597 78.9156 8.28389C79.9138 8.70156 80.8447 9.30885 81.7046 10.1057L85.4533 6.37081C84.0691 5.06681 82.5646 4.0812 80.938 3.41221H80.9389Z" fill="#3D4A39"/>
<path d="M51.8826 18.4339V2.12402H57.8251V32.1743L40.0452 15.2982V31.6081H34.1206V1.57666L51.8826 18.4339Z" fill="#3D4A39"/>
<path d="M51.2029 16.8564V1.44711H58.5045V33.7512L40.7245 16.876V32.2853H33.4409V0L51.202 16.8564H51.2029ZM52.562 2.80119V20.0108L34.8009 3.15447V30.9312H39.3664V13.7216L57.1463 30.5967V2.80119H52.562Z" fill="#3D4A39"/>
<path d="M24.5381 2.19287H30.4626V31.5705H24.5381V2.19287Z" fill="#3D4A39"/>
<path d="M24.538 1.854H30.8018V31.9087H24.1978V1.854H24.5371H24.538ZM30.1232 2.53105H24.8782V31.2317H30.1232V2.53105Z" fill="#3D4A39"/>
<path d="M10.529 16.1693C11.6026 16.1693 12.52 15.7651 13.2884 14.9503C14.0443 14.1355 14.4249 13.1651 14.4249 12.0328C14.4249 10.9632 14.0317 10.0241 13.2507 9.20927C12.4455 8.43206 11.2283 8.04658 9.59276 8.04658H6.26513V16.1514H8.54968V16.1702H10.529V16.1693ZM0.340576 2.19287H9.9608C13.082 2.19287 15.6547 3.18832 17.6771 5.18457C18.6699 6.16749 19.3692 7.09407 19.7812 7.97145C20.2803 9.04113 20.5307 10.3353 20.5307 11.8531V12.6178C20.5307 14.5961 19.9123 16.4618 18.6708 18.2157C17.7776 19.4535 16.5981 20.355 15.1376 20.9274L21.9984 31.5705H14.757L6.28488 18.577V31.5705H0.341474V2.19287H0.340576Z" fill="#3D4A39"/>
<path d="M10.5291 15.8314C11.0193 15.8314 11.4717 15.7401 11.8864 15.5568C12.3029 15.3725 12.6871 15.0944 13.039 14.7223C13.3882 14.3449 13.6503 13.9344 13.8236 13.4899C13.9968 13.0445 14.0848 12.5597 14.0848 12.0338C14.0848 11.5428 13.995 11.084 13.8173 10.6556C13.6377 10.2254 13.3684 9.82203 13.0094 9.44639C12.6458 9.09668 12.1862 8.83374 11.6306 8.65755C11.057 8.47509 10.3783 8.38476 9.59199 8.38476H6.60457V15.8126H8.88912V15.8314H10.5282H10.5291ZM12.1602 16.1748C11.6566 16.3975 11.1135 16.5075 10.5291 16.5075H8.21049V16.4887H5.92594V7.70682H9.59288C10.443 7.70682 11.1898 7.80878 11.8352 8.01449C12.4959 8.22467 13.0462 8.54128 13.4869 8.967L13.4959 8.97594C13.9151 9.4133 14.2311 9.88642 14.4429 10.3953C14.6566 10.9078 14.7634 11.4534 14.7634 12.0329C14.7634 12.6393 14.6602 13.2055 14.4546 13.7323C14.249 14.259 13.9429 14.7411 13.5372 15.1794L13.5345 15.182C13.1189 15.623 12.6611 15.9539 12.1593 16.1748H12.1602ZM0.340701 1.854H9.96093C11.5624 1.854 13.0264 2.11069 14.3532 2.62496C15.6835 3.14012 16.8711 3.91376 17.916 4.94498C18.4223 5.44672 18.8558 5.93595 19.2176 6.41534C19.582 6.8983 19.872 7.36874 20.0874 7.82846L20.0883 7.82935C20.3495 8.38923 20.5452 9.00635 20.6754 9.67982C20.8047 10.3497 20.8693 11.0742 20.8693 11.8523V12.617C20.8693 13.6419 20.7086 14.6383 20.3881 15.606C20.0677 16.5701 19.5874 17.5047 18.9474 18.4099L18.9447 18.4125C18.4797 19.0574 17.9402 19.6146 17.3262 20.0859C16.8146 20.4786 16.2517 20.8113 15.6395 21.0832L22.6179 31.9087H14.5722L6.62342 19.7165V31.9087H0.000488281V1.854H0.339804H0.340701ZM9.96093 2.53105H0.680017V31.2317H5.9439V17.4359L14.9385 31.2317H21.3765L14.6279 20.7639L15.013 20.6127C15.7149 20.3372 16.3487 19.984 16.9124 19.552C17.4734 19.1209 17.9681 18.6111 18.3935 18.0217H18.3926C18.9941 17.1729 19.4438 16.2973 19.7436 15.3949C20.0416 14.4969 20.1907 13.5704 20.1907 12.6179V11.8532C20.1907 11.1135 20.1305 10.432 20.0102 9.80772C19.8908 9.18791 19.7113 8.62266 19.4734 8.11287H19.4743C19.2786 7.69609 19.0129 7.265 18.6772 6.82049C18.3379 6.37062 17.925 5.90554 17.4393 5.42436C16.4618 4.45933 15.3514 3.73578 14.1099 3.2546C12.8649 2.77253 11.4825 2.53105 9.96182 2.53105H9.96093Z" fill="#3D4A39"/>
<path d="M6.34054 51.2094C6.96441 51.2094 7.52096 51.1048 8.01108 50.8955C8.5012 50.6862 8.91862 50.3928 9.25793 50.0163C9.59814 49.6398 9.85667 49.189 10.0353 48.6658C10.2139 48.1426 10.3019 47.5666 10.3019 46.9379V37.8179H12.3297V46.9379C12.3297 47.8036 12.1933 48.6059 11.9168 49.3464C11.6403 50.0861 11.2445 50.7247 10.7292 51.2658C10.2139 51.8069 9.58378 52.2326 8.84142 52.5394C8.09905 52.8461 7.26513 53 6.34054 53C5.41595 53 4.58202 52.8461 3.83966 52.5394C3.09729 52.2326 2.46624 51.8069 1.94829 51.2658C1.42944 50.7247 1.03447 50.0861 0.75709 49.3464C0.480611 48.6068 0.340576 47.8036 0.340576 46.9379V37.8179H2.36839V46.9271C2.36839 47.555 2.45905 48.131 2.63769 48.6551C2.81632 49.1783 3.07575 49.629 3.41506 50.0056C3.75528 50.3821 4.17179 50.6755 4.6655 50.8883C5.15922 51.1012 5.71666 51.2094 6.33964 51.2094H6.34054Z" fill="#AE7B3C"/>
<path d="M23.397 44.3923H24.1645C24.4311 44.3923 24.6448 44.3574 24.8055 44.2912C24.9661 44.225 25.1134 44.1132 25.2471 43.9522L30.2596 38.298C30.3997 38.1164 30.5469 37.9912 30.7013 37.9215C30.8557 37.8517 31.0442 37.8168 31.2686 37.8168H32.9921L27.2543 44.2769C27.1142 44.4442 26.9814 44.5801 26.8512 44.6883C26.722 44.7965 26.5819 44.8869 26.4347 44.9566C26.6241 45.0192 26.7956 45.1105 26.95 45.2321C27.1044 45.3546 27.2543 45.5147 27.4015 45.7106L33.3916 52.82H31.6259C31.493 52.82 31.3808 52.8093 31.2857 52.7923C31.1914 52.7744 31.107 52.7467 31.037 52.7082C30.967 52.6698 30.9078 52.6241 30.8548 52.5723C30.8018 52.5195 30.7498 52.4605 30.7004 52.3907L25.5092 46.4333C25.3692 46.2589 25.2184 46.1327 25.0577 46.0594C24.897 45.9861 24.6511 45.9512 24.3225 45.9512H23.3979V52.82H21.3701V37.8159H23.3979V44.3914L23.397 44.3923Z" fill="#AE7B3C"/>
<path d="M44.8457 45.0838C45.4346 45.0838 45.9561 45.0105 46.4077 44.8674C46.8592 44.7243 47.238 44.5221 47.5423 44.2601C47.8466 43.998 48.0746 43.6877 48.229 43.3246C48.3834 42.9614 48.4606 42.5599 48.4606 42.1207C48.4606 41.2272 48.1662 40.5538 47.5782 40.1003C46.9894 39.6469 46.107 39.4197 44.9301 39.4197H42.7021V45.0847H44.8457V45.0838ZM51.8026 52.822H49.9947C49.6231 52.822 49.3502 52.6789 49.1752 52.3927L45.2658 47.0318C45.1465 46.8645 45.0208 46.742 44.8843 46.6686C44.7479 46.5953 44.5343 46.5604 44.247 46.5604H42.7021V52.822H40.6743V37.8179H44.9301C45.8825 37.8179 46.7066 37.9118 47.3996 38.1041C48.0935 38.2964 48.668 38.5754 49.1195 38.9385C49.571 39.3016 49.9041 39.7381 50.1213 40.2506C50.3385 40.764 50.4471 41.3399 50.4471 41.9749C50.4471 42.5053 50.3628 43.0008 50.1949 43.4614C50.027 43.922 49.7847 44.3343 49.466 44.7001C49.1473 45.0668 48.7586 45.3807 48.2999 45.6392C47.8412 45.8977 47.3188 46.0927 46.7371 46.2259C46.9965 46.3726 47.221 46.5855 47.4095 46.8645L51.8026 52.822Z" fill="#AE7B3C"/>
<path d="M66.5144 47.2509L64.1499 41.1467C64.0799 40.9652 64.0063 40.7523 63.9291 40.5117C63.8519 40.2712 63.7783 40.0163 63.7083 39.7435C63.5611 40.3087 63.4102 40.7801 63.2567 41.1566L60.8923 47.25H66.5144V47.2509ZM70.7603 52.8211H69.184C69.0018 52.8211 68.8546 52.7755 68.7424 52.6851C68.6301 52.5948 68.5458 52.4794 68.4901 52.3399L67.0817 48.7168H60.3241L58.9157 52.3399C58.8735 52.4651 58.7927 52.5769 58.6742 52.6753C58.5548 52.7728 58.4076 52.822 58.2325 52.822H56.6562L62.6778 37.8179H64.7379L70.7594 52.822L70.7603 52.8211Z" fill="#AE7B3C"/>
<path d="M79.4614 52.8219H77.4229V37.8169H79.4614V52.8219Z" fill="#AE7B3C"/>
<path d="M100.889 37.8169V52.821H99.8697C99.7082 52.821 99.5753 52.7933 99.4667 52.7369C99.3581 52.6815 99.2495 52.5867 99.1444 52.4543L90.4326 41.1458C90.447 41.3202 90.4569 41.491 90.4641 41.6591C90.4712 41.8264 90.4748 41.9838 90.4748 42.1305V52.821H88.6885V37.8169H89.7396C89.8303 37.8169 89.9075 37.8205 89.9712 37.8312C90.0341 37.8419 90.0906 37.8589 90.1391 37.884C90.1885 37.9081 90.2369 37.943 90.2863 37.9886C90.3357 38.0342 90.3877 38.0933 90.4443 38.163L99.1561 49.4608C99.1417 49.2793 99.1319 49.1013 99.1211 48.9305C99.1103 48.7596 99.1031 48.5986 99.1031 48.4457V37.8178H100.889V37.8169Z" fill="#AE7B3C"/>
<path d="M117.41 47.2509L115.045 41.1467C114.975 40.9652 114.902 40.7523 114.825 40.5117C114.747 40.2712 114.674 40.0163 114.604 39.7435C114.457 40.3087 114.306 40.7801 114.152 41.1566L111.788 47.25H117.41V47.2509ZM121.656 52.8211H120.079C119.897 52.8211 119.75 52.7755 119.638 52.6851C119.526 52.5948 119.441 52.4794 119.386 52.3399L117.977 48.7168H111.22L109.811 52.3399C109.769 52.4651 109.688 52.5769 109.57 52.6753C109.45 52.7728 109.303 52.822 109.128 52.822H107.552L113.573 37.8179H115.633L121.655 52.822L121.656 52.8211Z" fill="#AE7B3C"/>
</g>
<defs>
<clipPath id="clip0_0_1274">
<rect width="122" height="53" fill="white"/>
</clipPath>
</defs>
</svg>
